#!OML:ASF I:\Actors\actors\Patient Classification 1\Patient 1\Session 1\Subject1.ASF
:FULLY-SPECIFIED
:DEGREES
540
root 0.861381 17.4631 8.7622 6.09764 -1.05982 -9.44745
lowerback 3.51205 1.14548 8.63741
upperback -6.90709 2.59928 4.40146
thorax -9.19543 0.846774 -0.41966
lowerneck -11.9522 -5.23179 -3.94852
upperneck 19.9102 -7.7716 5.99726
head 8.56272 -3.38038 1.80445
rclavicle 1.45113e-014 3.26007e-014
rhumerus -7.05076 14.5982 -80.934
rradius 68.031
rwrist -10.1881
rhand 33.0099 -68.549
rfingers 7.12502
rthumb 56.3907 -85.6316
lclavicle 1.45113e-014 3.26007e-014
lhumerus -41.3417 -2.24479 90.5854
lradius 90.7089
lwrist 65.5184
lhand -28.6899 16.5288
lfingers 7.12502
lthumb -2.05226 46.4987
rfemur -4.31232 18.1468 25.7967
rtibia 7.3533
rfoot -12.5927 -23.5742
rtoes 2.15494
lfemur 3.26197 -33.6282 -9.4139
ltibia -1.80407
lfoot -11.9394 41.5666
ltoes 0.114969
541
root 0.848335 17.4655 8.77732 6.0805 -0.822975 -9.12837
lowerback 3.39604 1.14524 8.31853
upperback -7.37029 2.57329 4.05426
thorax -9.63471 0.819121 -0.605118
lowerneck -11.8518 -5.2881 -3.98726
upperneck 20.2963 -7.9055 6.13501
head 8.69045 -3.42844 1.843
rclavicle 5.2181e-015 -4.41302e-014
rhumerus -9.21062 15.4467 -81.0136
rradius 69.6351
rwrist -5.67457
rhand 37.9435 -67.9405
rfingers 7.12502
rthumb 60.6697 -80.998
lclavicle 5.2181e-015 -4.41302e-014
lhumerus -41.9972 -2.28629 90.4506
lradius 90.7621
lwrist 65.413
lhand -28.5533 16.5865
lfingers 7.12502
lthumb -1.92029 46.5576
rfemur -4.11929 18.3952 25.5336
rtibia 7.15131
rfoot -12.6501 -24.0403
rtoes 2.38468
lfemur 3.30494 -33.8816 -9.77063
ltibia -1.86015
lfoot -11.8994 41.584
ltoes -0.0209287
542
root 0.831081 17.4727 8.79376 6.16704 -0.649006 -8.43127
lowerback 2.64398 1.08517 7.24919
upperback -7.49497 2.31317 3.82585
thorax -9.34976 0.768724 -0.217406
lowerneck -11.7791 -5.24463 -3.98821
upperneck 20.2553 -7.84577 6.14116
head 8.65997 -3.40273 1.85413
rclavicle -1.31695e-014 -1.98785e-015
rhumerus -10.7778 17.0883 -81.0131
rradius 71.0987
rwrist -2.87882
rhand 41.1755 -66.5882
rfingers 7.12502
rthumb 63.3622 -76.2758
lclavicle -1.31695e-014 -1.98785e-015
lhumerus -42.1345 -1.9173 90.3255
lradius 90.7784
lwrist 65.2577
lhand -28.3572 16.5708
lfingers 7.12502
lthumb -1.73089 46.5436
rfemur -4.06034 18.7993 24.7915
rtibia 6.95535
rfoot -12.7773 -24.6547
rtoes 2.86645
lfemur 3.18803 -34.2548 -10.4885
ltibia -1.8427
lfoot -11.9881 41.734
ltoes 0.0727327
543
root 0.820982 17.4759 8.80781 6.19166 -0.438171 -8.04727
lowerback 2.00283 1.00229 6.61881
upperback -7.61082 2.08425 3.64513
thorax -9.11121 0.700285 -0.0273839
lowerneck -11.6237 -5.17498 -3.86096
upperneck 20.1731 -7.76117 6.08587
head 8.59106 -3.36437 1.82856
rclavicle 1.1281e-014 9.14409e-014
rhumerus -12.5348 19.2457 -81.2781
rradius 72.5088
rwrist -1.68281
rhand 42.3108 -64.3255
rfingers 7.12502
rthumb 64.2808 -72.656
lclavicle 1.1281e-014 9.14409e-014
lhumerus -42.3289 -1.51079 90.1503
lradius 90.8243
lwrist 65.2106
lhand -28.2076 16.6329
lfingers 7.12502
lthumb -1.58641 46.6068
rfemur -3.91707 19.0235 24.4211
rtibia 6.77415
rfoot -12.905 -25.125
rtoes 3.28603
lfemur 3.16402 -34.4967 -10.9015
ltibia -1.86797
lfoot -11.895 41.7543
ltoes -0.0608154
544
root 0.817204 17.474 8.81898 6.14237 -0.14138 -8.04108
lowerback 1.85934 0.94616 6.68705
upperback -7.98374 2.00694 3.39294
thorax -9.43388 0.633009 -0.31967
lowerneck -11.2924 -5.17348 -3.74248
upperneck 20.3437 -7.80703 6.09315
head 8.58599 -3.3814 1.8141
rclavicle -2.03257e-014 6.08281e-014
rhumerus -14.6861 20.0816 -81.6937
rradius 73.5337
rwrist 3.47757
rhand 47.0519 -62.1052
rfingers 7.12502
rthumb 67.9138 -63.5341
lclavicle -2.03257e-014 6.08281e-014
lhumerus -42.9654 -1.34992 89.9219
lradius 90.868
lwrist 65.289
lhand -28.2487 16.8504
lfingers 7.12502
lthumb -1.62611 46.824
rfemur -3.66113 19.169 24.5128
rtibia 6.57201
rfoot -13.0894 -25.5128
rtoes 3.9328
lfemur 3.20052 -34.5587 -10.8875
ltibia -1.94209
lfoot -11.6811 41.5597
ltoes -0.492145
545
root 0.813305 17.4718 8.82999 6.077 0.180381 -8.1064
lowerback 1.71836 0.884158 6.80573
upperback -8.33289 1.92619 3.18362
thorax -9.73601 0.561868 -0.594545
lowerneck -11.0515 -5.20984 -3.70271
upperneck 20.5962 -7.88828 6.0776
head 8.62947 -3.41969 1.79853
rclavicle -2.6339e-015 5.98342e-014
rhumerus -16.6982 20.3714 -82.0896
rradius 74.2093
rwrist 10.0601
rhand 52.952 -59.2993
rfingers 7.12502
rthumb 71.7526 -48.4391
lclavicle -2.6339e-015 5.98342e-014
lhumerus -43.5739 -1.20171 89.7425
lradius 90.8485
lwrist 65.3141
lhand -28.3973 16.9988
lfingers 7.12502
lthumb -1.76967 46.9712
rfemur -3.3683 19.3844 24.7084
rtibia 6.3554
rfoot -13.334 -25.9316
rtoes 4.73589
lfemur 3.21034 -34.6415 -10.775
ltibia -1.96492
lfoot -11.6158 41.3487
ltoes -0.801275
546
root 0.809478 17.4685 8.84246 6.04324 0.475285 -8.19012
lowerback 1.12124 0.772957 6.72618
upperback -8.39646 1.71244 3.13845
thorax -9.46185 0.468377 -0.569858
lowerneck -11.1621 -5.18585 -3.64111
upperneck 20.8066 -7.85418 5.96098
head 8.71191 -3.40453 1.75006
rclavicle -2.03754e-015 8.54774e-015
rhumerus -18.1689 21.0614 -82.4769
rradius 74.6022
rwrist 14.9414
rhand 56.8275 -56.1264
rfingers 7.12502
rthumb 73.6213 -34.3374
lclavicle -2.03754e-015 8.54774e-015
lhumerus -43.7105 -0.795178 89.6006
lradius 90.7603
lwrist 65.2111
lhand -28.4103 16.9966
lfingers 7.12502
lthumb -1.78222 46.9689
rfemur -3.10466 19.5707 24.9257
rtibia 6.13969
rfoot -13.4723 -26.3504
rtoes 5.12653
lfemur 3.14405 -34.6178 -10.6065
ltibia -1.92303
lfoot -11.5584 41.0619
ltoes -1.0882
547
root 0.80546 17.4655 8.85312 6.02619 0.776076 -8.22906
lowerback 0.712411 0.654813 6.65414
upperback -8.61836 1.51571 3.02772
thorax -9.47542 0.369197 -0.623269
lowerneck -11.1227 -5.11011 -3.53178
upperneck 21.1537 -7.78293 5.89831
head 8.81203 -3.3637 1.71981
rclavicle 1.06847e-015 2.32578e-014
rhumerus -20.0771 22.1143 -83.3766
rradius 74.8946
rwrist 17.3726
rhand 57.4692 -53.109
rfingers 7.12502
rthumb 73.8637 -29.2824
lclavicle 1.06847e-015 2.32578e-014
lhumerus -44.1388 -0.536321 89.404
lradius 90.719
lwrist 65.1783
lhand -28.548 17.0253
lfingers 7.12502
lthumb -1.91522 46.9965
rfemur -2.85135 19.7776 25.0897
rtibia 5.89641
rfoot -13.574 -26.8349
rtoes 5.24508
lfemur 2.97427 -34.4025 -10.4234
ltibia -1.82738
lfoot -11.3487 40.5858
ltoes -1.67769
548
root 0.800352 17.4651 8.86118 5.9569 1.07355 -8.27836
lowerback 0.561163 0.538032 6.63167
upperback -8.96264 1.35523 2.88958
thorax -9.7789 0.273038 -0.73802
lowerneck -10.8748 -5.01731 -3.41976
upperneck 21.5406 -7.69453 5.83224
head 8.88629 -3.31896 1.69513
rclavicle 4.4975e-015 1.33186e-014
rhumerus -21.8649 21.8061 -84.0117
rradius 74.8584
rwrist 22.6964
rhand 61.9851 -50.1427
rfingers 7.12502
rthumb 74.9115 -10.5295
lclavicle 4.4975e-015 1.33186e-014
lhumerus -44.8227 -0.359416 89.2295
lradius 90.678
lwrist 65.1761
lhand -28.8909 16.9263
lfingers 7.12502
lthumb -2.24638 46.8943
rfemur -2.52398 20.0596 25.2924
rtibia 5.62011
rfoot -13.7451 -27.3503
rtoes 5.55014
lfemur 2.85459 -34.1863 -10.2545
ltibia -1.72284
lfoot -11.1554 40.0821
ltoes -2.25635
549
root 0.796591 17.4645 8.87003 5.88013 1.3052 -8.33228
lowerback -0.178826 0.391977 6.36358
upperback -8.85447 1.0715 2.95195
thorax -9.23354 0.173695 -0.497265
lowerneck -10.9737 -4.89512 -3.32448
upperneck 21.6054 -7.50599 5.66721
head 8.90618 -3.23649 1.64315
rclavicle 5.889e-015 -1.48095e-014
rhumerus -22.8995 22.543 -84.5808
rradius 74.6298
rwrist 24.948
rhand 62.3684 -47.355
rfingers 7.12502
rthumb 74.9428 -6.32322
lclavicle 5.889e-015 -1.48095e-014
lhumerus -44.7387 0.195019 89.1678
lradius 90.509
lwrist 65.0598
lhand -29.0158 16.9178
lfingers 7.12502
lthumb -2.36694 46.8844
rfemur -2.19694 20.3163 25.4932
rtibia 5.35963
rfoot -13.9558 -27.7851
rtoes 6.16084
lfemur 2.81983 -33.9567 -10.1235
ltibia -1.68688
lfoot -10.9698 39.647
ltoes -2.74025
550
root 0.795351 17.4627 8.87819 5.82558 1.52261 -8.36
lowerback -0.484531 0.330072 6.29334
upperback -9.05307 0.961011 2.83636
thorax -9.27814 0.115873 -0.568634
lowerneck -10.8824 -4.8826 -3.25833
upperneck 21.8771 -7.51641 5.63506
head 8.97919 -3.23681 1.62202
rclavicle -1.38404e-014 4.40308e-014
rhumerus -24.3345 22.2871 -85.1968
rradius 74.3154
rwrist 28.505
rhand 64.2798 -44.3223
rfingers 7.12502
rthumb 74.9565 3.82288
lclavicle -1.38404e-014 4.40308e-014
lhumerus -45.1701 0.386241 89.0412
lradius 90.3741
lwrist 65.0593
lhand -28.9477 17.1662
lfingers 7.12502
lthumb -2.30122 47.1336
rfemur -1.91642 20.4438 25.6207
rtibia 5.08327
rfoot -14.0857 -28.1319
rtoes 6.62686
lfemur 2.76916 -33.8123 -10.0387
ltibia -1.63148
lfoot -10.8946 39.3259
ltoes -3.00831
